<svg width="128" height="128" viewBox="0 0 128 128" fill="none" xmlns="http://www.w3.org/2000/svg">
<rect width="128" height="128" fill="#9D9D9D"/>
<path d="M0 0V68H1V1L45 2H126L127 126L115 127V128H128V0H0Z" fill="#51453F"/>
<path d="M65 23C59.8783 44.4528 65.391 71.6556 44 85.8951C34.8586 91.9803 24.2358 93.8829 14 97V99C32.6613 104.516 67.0609 97.355 74.3364 78C78.9865 65.6296 78.1549 48.4875 74.3256 36C72.5655 30.26 71.3018 24.8114 65 23ZM45 29C44.0547 50.9605 30.1608 82.2862 4 73C4.35289 89.5656 19.4575 89.1978 32 83.9823C53.0249 75.2394 65.3225 45.5452 45 29ZM85 32L83.7137 66L74 96C82.1236 96 90.6116 96.2773 97.8264 91.7716C111.397 83.2965 116.44 60.4902 123 47C116.558 49.0391 105.196 61.6033 99.1049 60.4082C92.6894 59.1494 89.5673 37.5 87 32H85ZM98 57C103.171 56.1852 105.713 52.9458 107 48C96.336 43.6567 96.5941 47.4373 98 57ZM20.0934 50.7423C13.1954 53.5991 11.2387 70.5708 21.0031 66.9715C31.0035 63.2851 33.818 45.0582 20.0934 50.7423Z" fill="#080B0E"/>
</svg>
